# xmcd
#
# Track frame offsets: 
#        150
#        18213
#        37192
#        53505
#        67606
#        78342
#        93861
#        107152
#        120173
#        166522
#        187087
#        203826
#        217020
#        239416
#        255377
#        271417
#        291815
#        309276
#        318575
#        329265
#
# Disc length: 4611 seconds
#
# Revision: 0
# Processed by: cddbd v1.5.2PL0 Copyright (c) Steve Scherf et al.
# Submitted via: ExactAudioCopy v1.1
#
DISCID=08120114
DTITLE=Various Artist - Het Allerbeste Uit Radio 1 Classics 1000 Van 2019 - C
DTITLE=D 2
DYEAR=2019
DGENRE=Easy Listening
TTITLE0=Amy Winehouse - Back To Black
TTITLE1=Janis Joplin - Piece Of My Heart
TTITLE2=Elvis Presley - Always On My Mind
TTITLE3=Fleetwood Mac - Albatross
TTITLE4=Aretha Franklin - Respect
TTITLE5=The Stranglers - Golden Brown
TTITLE6=Roy Orbison - Pretty Woman
TTITLE7=Ben E. King - Stand By Me
TTITLE8=Nina Simone - Sinnerman
TTITLE9=Barry Ryan - Eloise
TTITLE10=The Tragically Hip - Ahead By A Century
TTITLE11=Lou Reed - Vicious
TTITLE12=Texas - I Don't Want A Lover
TTITLE13=First Aid Kit - My Silver Lining
TTITLE14=Serge Gainsbourg - Initials B.B.
TTITLE15=The Cranberries - Linger
TTITLE16=Elton John - Daniel
TTITLE17=Bill Withers - Ain't No Sunshine
TTITLE18=Edith Piaf - Non, Je Ne Regrette Rien
TTITLE19=10CC - I'm Not In Love
EXTD=
EXTT0=
EXTT1=
EXTT2=
EXTT3=
EXTT4=
EXTT5=
EXTT6=
EXTT7=
EXTT8=
EXTT9=
EXTT10=
EXTT11=
EXTT12=
EXTT13=
EXTT14=
EXTT15=
EXTT16=
EXTT17=
EXTT18=
EXTT19=
PLAYORDER=
